<?xml version="1.0" encoding="UTF-8" standalone="no"?>
<!-- Created with Inkscape (http://www.inkscape.org/) -->

<svg
   xmlns:dc="http://purl.org/dc/elements/1.1/"
   xmlns:cc="http://creativecommons.org/ns#"
   xmlns:rdf="http://www.w3.org/1999/02/22-rdf-syntax-ns#"
   xmlns:svg="http://www.w3.org/2000/svg"
   xmlns="http://www.w3.org/2000/svg"
   xmlns:sodipodi="http://sodipodi.sourceforge.net/DTD/sodipodi-0.dtd"
   xmlns:inkscape="http://www.inkscape.org/namespaces/inkscape"
   width="20.32mm"
   height="20.32mm"
   viewBox="0 0 71.999999 71.999999"
   id="svg4384"
   version="1.1"
   inkscape:version="0.91 r13725"
   sodipodi:docname="git.svg">
  <defs
     id="defs4386" />
  <sodipodi:namedview
     id="base"
     pagecolor="#ffffff"
     bordercolor="#666666"
     borderopacity="1.0"
     inkscape:pageopacity="0.0"
     inkscape:pageshadow="2"
     inkscape:zoom="1.979899"
     inkscape:cx="-7.1052405"
     inkscape:cy="86.842597"
     inkscape:document-units="px"
     inkscape:current-layer="layer1"
     showgrid="false"
     fit-margin-top="0"
     fit-margin-left="0"
     fit-margin-right="0"
     fit-margin-bottom="0"
     inkscape:window-width="1366"
     inkscape:window-height="744"
     inkscape:window-x="0"
     inkscape:window-y="24"
     inkscape:window-maximized="1" />
  <metadata
     id="metadata4389">
    <rdf:RDF>
      <cc:Work
         rdf:about="">
        <dc:format>image/svg+xml</dc:format>
        <dc:type
           rdf:resource="http://purl.org/dc/dcmitype/StillImage" />
        <dc:title></dc:title>
      </cc:Work>
    </rdf:RDF>
  </metadata>
  <g
     inkscape:label="Layer 1"
     inkscape:groupmode="layer"
     id="layer1"
     transform="translate(378.43813,-778.80035)">
    <g
       transform="matrix(0.24973566,0,0,0.24973566,-447.38122,657.05148)"
       id="g4319">
      <g
         transform="translate(787.91898,357.594)"
         id="g4302">
        <rect
           ry="62.214851"
           y="145.5753"
           x="-496.19638"
           height="256.98813"
           width="256.98813"
           id="rect4285"
           style="opacity:1;fill:#ffffff;fill-opacity:1;fill-rule:nonzero;stroke:#000000;stroke-width:31.31671715;stroke-linejoin:round;stroke-miterlimit:4;stroke-dasharray:none;stroke-opacity:1" />
        <g
           id="g4199"
           transform="matrix(1.0541404,0,0,1.0541404,-624.39041,-363.38116)"
           style="fill:#000000">
          <g
             id="flowRoot4168"
             style="font-style:normal;font-variant:normal;font-weight:normal;font-stretch:normal;font-size:39.99993896px;line-height:125%;font-family:Acme;-inkscape-font-specification:'Acme, Normal';text-align:center;letter-spacing:0px;word-spacing:0px;writing-mode:lr-tb;text-anchor:middle;fill:#000000;fill-opacity:1;stroke:none;stroke-width:1px;stroke-linecap:butt;stroke-linejoin:miter;stroke-opacity:1"
             transform="matrix(3.7318337,0,0,3.7318337,-389.52289,-920.71153)">
            <path
               sodipodi:nodetypes="aacaccscssacccsccccccscsaassssssaaaaaaaaa"
               inkscape:connector-curvature="0"
               id="path4179"
               d="m 149.65603,421.33235 c 0.074,-1.44799 1.19214,-2.76772 2.31927,-3.6797 0.85439,-0.6913 3.09478,-1.13721 3.09478,-1.13721 -0.93933,-0.65078 -1.18884,-1.66971 -1.11692,-2.61474 0.0778,-1.02285 0.75041,-1.80933 1.62322,-2.61452 -1.92,0 -2.90861,-0.66951 -4.05528,-1.73618 -1.11999,-1.06667 -1.67999,-2.49333 -1.67999,-4.27999 0,-2.32 0.94666,-4.33333 2.83999,-6.03999 1.89333,-1.73333 4.13333,-2.6 6.71999,-2.6 0.66667,0 1.64,0.13333 2.92,0.4 1.28,0.26667 1.88255,0.13717 2.81083,0.01 0.77372,-0.10599 2.25426,-0.63809 2.25426,-0.63809 l -0.0422,4.09238 -1.53554,0.55449 c 0.26667,0.77333 0.35254,1.15502 0.35254,2.14169 0,0.98667 -0.24,1.97333 -0.72,2.96 -0.45333,0.95999 -1.01333,1.73332 -1.67999,2.31999 -0.64,0.58667 -1.29333,1.10667 -1.96,1.56 -1.13036,0.75655 -1.98957,1.67466 -1.53466,3.07168 0.27307,0.79856 0.65715,1.48109 1.72382,1.85442 2.82666,1.14667 3.59433,1.40813 4.581,2.20813 1.01333,0.8 1.70983,2.45108 1.70983,3.62441 0,1.97333 -1,3.58666 -3,4.83999 -1.97333,1.28 -4.33332,1.92 -7.07999,1.92 -2.74666,0 -4.62198,-0.31934 -6.30507,-1.69966 -1.29952,-1.06576 -2.32561,-2.83864 -2.23989,-4.5171 z m 11.98506,-16.94234 c 0,-1.30667 -0.29333,-2.26667 -0.88,-2.88 -0.58667,-0.61333 -1.50667,-0.92 -2.76,-0.92 -2.42666,0 -3.63999,1.2 -3.63999,3.6 0,2.37333 1.29333,3.55999 3.87999,3.55999 2.26667,0 3.4,-1.12 3.4,-3.35999 z m 2.00949,16.85626 c 0.0445,-0.73205 -0.54162,-1.45751 -1.13966,-1.88204 -1.01936,-0.7236 -2.42058,-0.83687 -3.66915,-0.77559 -1.16217,0.057 -2.44631,0.29374 -3.32813,1.05288 -0.59277,0.5103 -1.08651,1.32681 -1.03254,2.10711 0.0444,0.64193 0.54567,1.24149 1.08,1.6 0.87076,0.58423 2.03155,0.65813 3.07999,0.64 1.2118,-0.021 2.51322,-0.20619 3.5322,-0.86237 0.67007,-0.4315 1.42889,-1.08447 1.47729,-1.87999 z"
               style="fill:#000000" />
            <path
               sodipodi:nodetypes="ccccc"
               inkscape:connector-curvature="0"
               id="path4181"
               d="m 174.75188,396.38064 -0.0275,19.32641 -4.46276,0.0117 -0.003,-19.31158 z"
               style="fill:#000000" />
            <path
               sodipodi:nodetypes="cccccccccsccscccccc"
               inkscape:connector-curvature="0"
               id="path4183"
               d="m 180.34411,396.33644 0,-5.19894 4.82951,-0.0333 0.0505,5.2322 4.40375,0 -0.004,3.27999 -4.55999,0 -0.2,8.35999 c 0,1.25333 0.12,2.09333 0.35999,2.52 0.24,0.4 0.68,0.6 1.32,0.6 0.64,0 1.73062,-0.14667 2.79729,-0.44 l 0.003,3.93152 c -1.85492,1.20565 -2.71344,0.98982 -4.04677,0.98982 -1.33333,0 -2.68769,-0.66983 -3.54102,-1.62983 -0.85333,-0.98667 -1.23803,-2.45867 -1.32745,-3.43659 l -0.0847,-10.89491 -2.75999,0 0.004,-3.27999 z"
               style="fill:#000000" />
          </g>
          <circle
             r="9.4858656"
             cy="544.0777"
             cx="254.13797"
             id="path4185"
             style="opacity:1;fill:#000000;fill-opacity:1;fill-rule:nonzero;stroke:none;stroke-width:15;stroke-linejoin:round;stroke-miterlimit:4;stroke-dasharray:none;stroke-opacity:1" />
        </g>
      </g>
    </g>
  </g>
</svg>
