<?xml version="1.0" encoding="UTF-8" standalone="no"?>
<!-- Created with Inkscape (http://www.inkscape.org/) -->

<svg
   xmlns:dc="http://purl.org/dc/elements/1.1/"
   xmlns:cc="http://creativecommons.org/ns#"
   xmlns:rdf="http://www.w3.org/1999/02/22-rdf-syntax-ns#"
   xmlns:svg="http://www.w3.org/2000/svg"
   xmlns="http://www.w3.org/2000/svg"
   xmlns:sodipodi="http://sodipodi.sourceforge.net/DTD/sodipodi-0.dtd"
   xmlns:inkscape="http://www.inkscape.org/namespaces/inkscape"
   width="24.271111mm"
   height="24.271111mm"
   viewBox="0 0 85.999998 85.999997"
   id="svg2"
   version="1.1"
   inkscape:version="0.91 r13725"
   sodipodi:docname="logo.svg">
  <defs
     id="defs4" />
  <sodipodi:namedview
     id="base"
     pagecolor="#ffffff"
     bordercolor="#666666"
     borderopacity="1.0"
     inkscape:pageopacity="0.0"
     inkscape:pageshadow="2"
     inkscape:zoom="1.979899"
     inkscape:cx="94.072651"
     inkscape:cy="33.090578"
     inkscape:document-units="px"
     inkscape:current-layer="layer1"
     showgrid="false"
     fit-margin-top="0"
     fit-margin-left="0"
     fit-margin-right="0"
     fit-margin-bottom="0"
     inkscape:window-width="1366"
     inkscape:window-height="744"
     inkscape:window-x="0"
     inkscape:window-y="24"
     inkscape:window-maximized="1" />
  <metadata
     id="metadata7">
    <rdf:RDF>
      <cc:Work
         rdf:about="">
        <dc:format>image/svg+xml</dc:format>
        <dc:type
           rdf:resource="http://purl.org/dc/dcmitype/StillImage" />
        <dc:title></dc:title>
      </cc:Work>
    </rdf:RDF>
  </metadata>
  <g
     inkscape:label="Layer 1"
     inkscape:groupmode="layer"
     id="layer1"
     transform="translate(631.09787,-527.02658)">
    <g
       id="g4309"
       transform="matrix(0.24558375,0,0,0.24558375,-482.42783,491.61363)">
      <g
         id="g4314">
        <path
           inkscape:connector-curvature="0"
           id="path4293"
           d="M 361.82559,75.325195 A 176.86452,176.86452 0 0 1 184.96107,252.18971 176.86452,176.86452 0 0 1 8.0965576,75.325195 176.86452,176.86452 0 0 1 184.96107,-101.53932 176.86452,176.86452 0 0 1 361.82559,75.325195 Z"
           style="opacity:1;fill:#b3b3b3;fill-opacity:1;fill-rule:nonzero;stroke:none;stroke-width:15.57634068;stroke-linejoin:round;stroke-miterlimit:4;stroke-dasharray:none;stroke-opacity:1" />
        <path
           style="fill:#000000"
           d="m 93.450067,179.42501 c -2.324112,-2.32411 -1.1683,-9.23873 1.730238,-10.35099 3.643164,-1.39803 7.881385,1.92193 7.881385,6.17376 0,4.13034 -6.732548,7.05633 -9.611623,4.17723 z m 175.617033,-4.5245 c -0.88441,-2.30232 -7.78011,-18.08767 -15.32381,-35.07854 -7.54369,-16.9909 -13.71581,-31.44223 -13.71581,-32.11409 0,-0.67184 1.82471,-0.96238 4.05491,-0.64565 3.22924,0.45862 6.62366,5.7134 16.67018,25.80643 6.9384,13.8768 13.35521,25.23054 14.25959,25.23054 0.90438,0 12.32001,-23.92395 25.36808,-53.16435 24.22731,-54.292791 30.49996,-66.680721 33.76397,-66.680721 3.41499,0 -0.11192,10.21204 -17.54061,50.787569 -36.93287,85.983192 -43.16493,97.239312 -47.5365,85.858812 z m -123.65415,-2.97052 c -26.43243,-12.65663 -42.90146,-46.2738 -37.33453,-76.208532 4.38163,-23.56109 17.47426,-41.505839 37.4327,-51.305289 9.29549,-4.56403 12.7442,-5.25966 26.03347,-5.25134 19.47035,0.0126 32.02363,5.291 42.2445,17.76425 3.76672,4.59676 7.5484,8.35777 8.40376,8.35777 0.85533,0 1.77136,-21.27751 2.03562,-47.28337 0.44079,-43.377766 0.74097,-47.333463 3.63429,-47.889959 2.96009,-0.569328 3.15381,3.711935 3.15381,69.704289 0,49.643579 -0.58896,70.674851 -2.00366,71.549201 -2.75255,1.70115 -4.44908,-1.56267 -7.85009,-15.102172 -7.67931,-30.571449 -27.07177,-48.939679 -51.7135,-48.982189 -8.0227,-0.0145 -12.63564,1.2406 -21.57057,5.86592 -20.17257,10.4427 -31.24423,30.262319 -31.11167,55.693681 0.0616,11.83772 0.90407,15.50953 5.87427,25.60545 8.20034,16.65722 22.91646,28.44944 44.04055,35.2902 8.86699,2.87148 7.6454,6.2492 -2.48692,6.87641 -5.80333,0.35925 -10.90747,-0.91374 -18.78203,-4.68432 z M 35.780256,119.95302 c -0.66081,-0.66078 -1.18904,-16.67768 -1.17387,-35.593082 0.025,-31.167829 1.27664,-41.797939 4.53746,-38.537119 1.81916,1.81914 4.35559,14.29114 4.40286,21.64954 l 0.0431,6.690939 8.108871,-7.880899 c 9.6776,-9.40557 24.554532,-17.21518 32.794053,-17.21518 9.357196,0 7.050584,3.97249 -5.581429,9.61248 -22.283214,9.94907 -30.255224,20.175149 -34.566385,44.339991 -1.33735,7.49613 -2.45983,14.64307 -2.49441,15.88206 -0.0667,2.38602 -4.04619,3.07524 -6.07015,1.05127 z"
           id="path4272"
           inkscape:connector-curvature="0" />
      </g>
    </g>
    <g
       id="g4299"
       transform="matrix(0.84657188,0,0,0.84657188,-205.86192,89.352097)">
      <g
         transform="matrix(0.28318359,0,0,0.28318359,-509.23818,395.1875)"
         id="g4291">
        <circle
           r="176.86452"
           cy="609.50507"
           cx="203.8531"
           id="circle4301"
           style="opacity:1;fill:none;fill-opacity:1;fill-rule:nonzero;stroke:#000000;stroke-width:5;stroke-linejoin:round;stroke-miterlimit:4;stroke-dasharray:none;stroke-opacity:1" />
        <path
           inkscape:connector-curvature="0"
           id="path4303"
           d="m 112.34208,713.60487 c -2.32412,-2.32411 -1.1683,-9.23873 1.73023,-10.35099 3.64317,-1.39803 7.88139,1.92193 7.88139,6.17376 0,4.13034 -6.73255,7.05633 -9.61162,4.17723 z m 175.61703,-4.5245 c -0.88441,-2.30232 -7.78011,-18.08767 -15.32381,-35.07854 -7.54369,-16.9909 -13.71581,-31.44223 -13.71581,-32.11409 0,-0.67184 1.82471,-0.96238 4.05491,-0.64565 3.22924,0.45862 6.62366,5.7134 16.67018,25.80643 6.9384,13.8768 13.35521,25.23054 14.25959,25.23054 0.90438,0 12.32001,-23.92395 25.36808,-53.16435 24.22731,-54.29279 30.49996,-66.68072 33.76397,-66.68072 3.41499,0 -0.11192,10.21204 -17.54061,50.78757 -36.93287,85.98319 -43.16493,97.23931 -47.5365,85.85881 z m -123.65415,-2.97052 c -26.43243,-12.65663 -42.90146,-46.2738 -37.33453,-76.20853 4.38163,-23.56109 17.47426,-41.50584 37.4327,-51.30529 9.29549,-4.56403 12.7442,-5.25966 26.03347,-5.25134 19.47035,0.0126 32.02363,5.291 42.2445,17.76425 3.76672,4.59676 7.5484,8.35777 8.40376,8.35777 0.85533,0 1.77136,-21.27751 2.03562,-47.28337 0.44079,-43.37776 0.74097,-47.33346 3.63429,-47.88996 2.96009,-0.56933 3.15381,3.71194 3.15381,69.70429 0,49.64358 -0.58896,70.67485 -2.00366,71.5492 -2.75255,1.70115 -4.44908,-1.56267 -7.85009,-15.10217 -7.67931,-30.57145 -27.07177,-48.93968 -51.7135,-48.98219 -8.0227,-0.0145 -12.63564,1.2406 -21.57057,5.86592 -20.17257,10.4427 -31.24423,30.26232 -31.11167,55.69368 0.0616,11.83772 0.90407,15.50953 5.87427,25.60545 8.20034,16.65722 22.91646,28.44944 44.04055,35.2902 8.86699,2.87148 7.6454,6.2492 -2.48692,6.87641 -5.80333,0.35925 -10.90747,-0.91374 -18.78203,-4.68432 z M 54.67227,654.13288 C 54.01146,653.4721 53.48323,637.4552 53.4984,618.5398 c 0.025,-31.16783 1.27664,-41.79794 4.53746,-38.53712 1.81916,1.81914 4.35559,14.29114 4.40286,21.64954 l 0.0431,6.69094 8.10887,-7.8809 c 9.6776,-9.40557 24.55453,-17.21518 32.79405,-17.21518 9.3572,0 7.05058,3.97249 -5.58143,9.61248 -22.28321,9.94907 -30.25522,20.17515 -34.56638,44.33999 -1.33735,7.49613 -2.45983,14.64307 -2.49441,15.88206 -0.0667,2.38602 -4.04619,3.07524 -6.07015,1.05127 z"
           style="fill:#000000" />
      </g>
      <path
         transform="translate(-627.92173,525.26606)"
         inkscape:connector-curvature="0"
         id="path4295"
         d="m 166.614,90.688456 c -15.25356,-3.446928 -27.74376,-13.205765 -34.43728,-26.906509 -7.81698,-16.000322 -5.91828,-36.236874 4.72662,-50.376737 17.99398,-23.901811 52.1664,-26.754744 73.50385,-6.1365742 21.32137,20.6026332 19.82979,54.9473822 -3.1871,73.3850962 -4.94045,3.957555 -11.21388,7.260385 -17.20824,9.059765 -3.87234,1.162403 -5.6282,1.379985 -12.34323,1.529558 -5.55707,0.123784 -8.76474,-0.03712 -11.05462,-0.554599 z M 152.44801,72.228827 c 1.18267,-0.632951 1.27022,-2.140528 0.177,-3.047827 -1.57455,-1.306759 -3.54765,1.225997 -2.21037,2.837322 0.72557,0.874256 0.78218,0.880115 2.03337,0.210505 z m 50.74703,-2.447342 c 2.60677,-3.9391 15.88983,-34.822674 15.88983,-36.944413 0,-3.438759 -3.11763,2.195005 -11.81643,21.353047 -2.74339,6.041975 -5.15418,10.985409 -5.35732,10.985409 -0.20314,0 -1.80262,-2.72673 -3.55441,-6.059405 -3.84582,-7.316459 -5.33623,-9.126415 -6.27044,-7.614833 -0.15905,0.257346 1.22138,3.950717 3.06762,8.207489 1.84625,4.256778 3.77316,8.705551 4.28204,9.886166 0.50887,1.180616 1.271,2.146575 1.69362,2.146575 0.42262,0 1.35209,-0.882015 2.06549,-1.960035 z m -30.32465,0.545119 c 0,-0.361519 -1.27458,-1.175333 -2.8324,-1.808476 -5.82947,-2.369278 -9.19161,-5.392639 -11.42717,-10.275742 -1.11562,-2.436831 -1.23915,-3.274677 -1.05147,-7.131682 0.25166,-5.171849 1.72722,-8.870648 4.71289,-11.813898 6.87188,-6.774241 16.3872,-5.59341 21.33334,2.647422 0.9041,1.506331 2.21829,4.622189 2.92042,6.924125 2.60322,8.534622 3.26769,4.867026 3.25889,-17.987947 -0.006,-15.103693 -0.22112,-18.23281 -1.25457,-18.23281 -0.93397,0 -1.26525,3.638596 -1.26525,13.896957 0,5.065655 -0.14544,9.9375 -0.32321,10.826321 l -0.32321,1.616039 -2.32844,-2.28698 c -3.36612,-3.306178 -6.30536,-4.451338 -11.61767,-4.526366 -3.72903,-0.05267 -4.76015,0.130471 -7.24484,1.286761 -5.71597,2.660008 -9.80867,8.288803 -10.99969,15.128147 -1.40847,8.088034 2.96858,17.240677 10.10863,21.137694 2.28311,1.246114 3.27273,1.493167 5.55583,1.38696 1.87793,-0.08736 2.77792,-0.342179 2.77792,-0.786525 z M 136.79582,51.004648 c 1.38483,-7.035864 3.24689,-9.725915 8.54792,-12.348926 4.58061,-2.266538 5.63788,-3.790785 2.62184,-3.779836 -2.04345,0.0074 -6.32578,2.189311 -8.83329,4.500646 l -2.22681,2.05261 -0.55633,-3.357347 c -0.55417,-3.344272 -1.24618,-4.744121 -1.9824,-4.010156 -0.45013,0.448746 -0.83851,19.765941 -0.41936,20.858224 0.15489,0.403627 0.6679,0.659478 1.14003,0.568555 0.64273,-0.123774 1.072,-1.250423 1.7084,-4.48377 z"
         style="opacity:1;fill:#ffffff;fill-opacity:1;fill-rule:nonzero;stroke:none;stroke-width:5;stroke-linejoin:round;stroke-miterlimit:4;stroke-dasharray:none;stroke-opacity:1" />
      <path
         transform="translate(-627.92173,525.26606)"
         inkscape:connector-curvature="0"
         id="path4297"
         d="m 166.614,90.688456 c -5.03995,-1.138907 -8.04502,-2.229255 -12.68848,-4.603846 -12.70401,-6.496635 -21.81321,-18.133329 -25.35273,-32.387284 -1.54652,-6.227974 -1.53232,-16.20895 0.0322,-22.584114 1.30574,-5.320894 4.71436,-12.770411 7.83709,-17.127931 9.09363,-12.6894125 24.34092,-20.5173132 39.9639,-20.5173132 15.62298,0 30.87027,7.8279007 39.9639,20.5173132 3.11885,4.3521 6.52935,11.801894 7.84115,17.127931 1.67479,6.799837 1.56584,16.823765 -0.25769,23.708252 -4.42922,16.721919 -17.2223,29.873287 -33.94144,34.892033 -3.87234,1.162403 -5.6282,1.379985 -12.34323,1.529558 -5.55707,0.123784 -8.76474,-0.03712 -11.05462,-0.554599 z M 152.44801,72.228827 c 1.18267,-0.632951 1.27022,-2.140528 0.177,-3.047827 -1.57455,-1.306759 -3.54765,1.225997 -2.21037,2.837322 0.72557,0.874256 0.78218,0.880115 2.03337,0.210505 z m 50.46814,-1.993713 c 1.20899,-1.697874 5.2676,-10.491318 10.65543,-23.086208 5.08991,-11.898455 6.21187,-15.308412 5.03684,-15.308412 -0.84119,0 -2.85267,3.911106 -9.6593,18.781519 -3.66387,8.004433 -6.83951,14.553515 -7.05698,14.553515 -0.21747,0 -1.80012,-2.670591 -3.51701,-5.934646 -3.30899,-6.290867 -5.19507,-8.768675 -6.03516,-7.928581 -0.3229,0.3229 0.78804,3.473944 3.1988,9.073003 5.60707,13.022588 5.35644,12.687955 7.37738,9.84981 z m -30.59504,0.695869 c 1.23978,-0.475751 0.53381,-1.06965 -3.47096,-2.919967 -4.75634,-2.197567 -7.93375,-5.140626 -9.93184,-9.199313 -1.48144,-3.009239 -1.56449,-3.47498 -1.36197,-7.638056 0.35925,-7.38468 3.31106,-12.154939 9.34954,-15.109293 2.34097,-1.145327 3.16458,-1.292927 5.96176,-1.068396 6.69291,0.537242 11.14489,5.031575 13.65624,13.786163 1.02513,3.573617 1.6683,4.55652 2.4623,3.762934 0.64191,-0.641593 0.80112,-39.057145 0.1645,-39.694799 -0.21297,-0.21332 -0.66461,-0.110465 -1.00364,0.228567 -0.4335,0.433505 -0.71048,4.320275 -0.9334,13.098311 -0.17435,6.865039 -0.34774,12.569813 -0.38532,12.677274 -0.0376,0.107462 -1.16902,-0.834183 -2.51431,-2.092544 -3.14229,-2.939242 -4.90393,-3.825287 -8.61436,-4.332719 -8.90983,-1.218496 -15.79151,2.540301 -19.50626,10.654389 -2.71856,5.938109 -2.62587,12.005257 0.27343,17.897169 3.42236,6.95488 11.10123,11.774197 15.85429,9.95028 z M 135.98144,54.442657 c 0.13937,-0.625032 0.59612,-2.675434 1.015,-4.556454 1.36482,-6.128763 3.30077,-8.733402 8.3473,-11.230481 4.58061,-2.266538 5.63788,-3.790785 2.62184,-3.779836 -2.05459,0.0075 -6.3306,2.193747 -8.87164,4.535999 l -2.26517,2.087963 -0.32793,-2.430565 c -0.66168,-4.904288 -1.84993,-6.671406 -2.45424,-3.64985 -0.4264,2.131985 -0.41151,19.394324 0.0171,19.822927 0.7003,0.700303 1.67379,0.294353 1.91774,-0.799703 z"
         style="opacity:1;fill:#ffffff;fill-opacity:1;fill-rule:nonzero;stroke:none;stroke-width:5;stroke-linejoin:round;stroke-miterlimit:4;stroke-dasharray:none;stroke-opacity:1" />
    </g>
  </g>
</svg>
